<svg xmlns="http://www.w3.org/2000/svg" width="34" height="34" viewBox="0 0 34 34"><defs><style>.a{fill:none;}.b{fill:#103e39;stroke:#103e39;stroke-width:0.5px;}</style></defs><rect class="a" width="34" height="34"/><path class="b" d="M199.321,206.648a1.621,1.621,0,0,0-1.611,1.792l1.216,11.345a1.621,1.621,0,0,0,1.611,1.449h17.088a1.621,1.621,0,0,0,1.611-1.449l1.215-11.345a1.621,1.621,0,0,0-1.611-1.792Zm0-1.621H218.84a3.241,3.241,0,0,1,3.222,3.587l-1.215,11.345a3.241,3.241,0,0,1-3.22,2.9h-17.09a3.241,3.241,0,0,1-3.222-2.9L196.1,208.614a3.241,3.241,0,0,1,3.222-3.587Zm1.656-1.621a8.306,8.306,0,0,1,16.207,0h-1.908a6.46,6.46,0,0,0-12.392,0Zm1.621,6.483-1.621,0a1.621,1.621,0,1,0,1.621-1.621A1.621,1.621,0,0,0,200.977,209.889Zm14.586,0-1.621,0a1.621,1.621,0,1,0,1.621-1.621A1.621,1.621,0,0,0,213.943,209.889Z" transform="translate(-192.081 -192.924)"/></svg>