<svg xmlns="http://www.w3.org/2000/svg" width="23.891" height="23.891" viewBox="0 0 23.891 23.891"><defs><style>.a{fill:#103e39;}.b{fill:#fff;}</style></defs><g transform="translate(0 0)"><path class="a" d="M22.572,0H1.317A1.318,1.318,0,0,0,0,1.319V22.574a1.318,1.318,0,0,0,1.319,1.318H22.572a1.318,1.318,0,0,0,1.319-1.318h0V1.318A1.318,1.318,0,0,0,22.572,0Zm0,0" transform="translate(0 0)"/><path class="b" d="M213.836,97.607V88.368h3.115l.467-3.616h-3.581v-2.3c0-1.045.29-1.756,1.788-1.756h1.9V77.466a25.519,25.519,0,0,0-2.782-.142c-2.753,0-4.637,1.68-4.637,4.766v2.661H207v3.616h3.1v9.239Zm0,0" transform="translate(-197.341 -73.716)"/></g></svg>