<svg xmlns="http://www.w3.org/2000/svg" width="24" height="24" viewBox="0 0 24 24"><defs><style>.a{fill:#168a7c;}</style></defs><g transform="translate(-574 -5277)"><g transform="translate(588.4 5289.801)"><path class="a" d="M10.5,7a2,2,0,0,0-2,2h1.6a.4.4,0,0,1,.4-.4.411.411,0,0,1,.409.338,2.412,2.412,0,0,1-.347.415A2.451,2.451,0,0,0,9.7,11h1.6c0-.1.3-.413.423-.546A2.175,2.175,0,0,0,12.5,9,2,2,0,0,0,10.5,7Z" transform="translate(-8.5 -7)"/><rect class="a" width="1.6" height="1.6" transform="translate(1.2 4.8)"/></g><path class="a" d="M25,17a8.009,8.009,0,0,0-8-8A8,8,0,0,0,1,9a7.914,7.914,0,0,0,1.754,5L1,15.418V17H9a8.009,8.009,0,0,0,8,8h8V23.418L23.248,22A7.944,7.944,0,0,0,25,17ZM9,15.4H3.564l1.543-1.25-.632-.628A6.333,6.333,0,0,1,2.6,9,6.4,6.4,0,1,1,15.4,9c0,.057,0,.108,0,.162A8.026,8.026,0,0,0,9.162,15.4C9.107,15.4,9.057,15.4,9,15.4Zm8,8a6.4,6.4,0,1,1,4.526-1.874l-.628.628L22.436,23.4Z" transform="translate(573 5276)"/></g></svg>