<svg xmlns="http://www.w3.org/2000/svg" width="25" height="24.005" viewBox="0 0 25 24.005"><defs><style>.a{fill:#103e39;}</style></defs><g transform="translate(-0.449 0)"><path class="a" d="M25.385,7.057A8.466,8.466,0,0,0,24.8,4.145a5.841,5.841,0,0,0-1.446-2.129A6.185,6.185,0,0,0,21.145.633,9.495,9.495,0,0,0,18.112.075C16.773.014,16.348,0,12.953,0S9.134.014,7.8.07A9.473,9.473,0,0,0,4.767.628,6.131,6.131,0,0,0,2.549,2.016,5.893,5.893,0,0,0,1.108,4.141,8.489,8.489,0,0,0,.527,7.053C.463,8.338.449,8.746.449,12s.015,3.667.073,4.947A8.466,8.466,0,0,0,1.1,19.864a5.9,5.9,0,0,0,1.446,2.129,6.185,6.185,0,0,0,2.213,1.383,9.5,9.5,0,0,0,3.033.558c1.333.056,1.758.07,5.153.07s3.82-.014,5.153-.07a9.468,9.468,0,0,0,3.033-.558,6.274,6.274,0,0,0,3.659-3.512,8.494,8.494,0,0,0,.581-2.912c.059-1.28.073-1.688.073-4.947s0-3.667-.064-4.947Zm-2.252,9.8a6.351,6.351,0,0,1-.43,2.227,4.069,4.069,0,0,1-2.374,2.279,7.128,7.128,0,0,1-2.32.413c-1.319.056-1.714.07-5.051.07s-3.737-.014-5.051-.07a7.1,7.1,0,0,1-2.32-.413,3.867,3.867,0,0,1-1.436-.9,3.721,3.721,0,0,1-.933-1.379,6.374,6.374,0,0,1-.43-2.227c-.059-1.266-.073-1.646-.073-4.849s.015-3.587.073-4.849a6.348,6.348,0,0,1,.43-2.227,3.639,3.639,0,0,1,.938-1.379,3.9,3.9,0,0,1,1.436-.9,7.133,7.133,0,0,1,2.32-.413c1.319-.056,1.715-.07,5.051-.07s3.737.014,5.051.07a7.1,7.1,0,0,1,2.32.413,3.864,3.864,0,0,1,1.436.9A3.72,3.72,0,0,1,22.7,4.938a6.377,6.377,0,0,1,.43,2.227c.059,1.266.073,1.646.073,4.849s-.015,3.578-.073,4.844Zm0,0"/><path class="a" d="M131.372,124.5a6.172,6.172,0,1,0,6.423,6.166A6.3,6.3,0,0,0,131.372,124.5Zm0,10.167a4,4,0,1,1,4.167-4,4.087,4.087,0,0,1-4.167,4Zm0,0" transform="translate(-118.419 -118.662)"/><path class="a" d="M365.449,90.041a1.5,1.5,0,1,1-1.5-1.44A1.471,1.471,0,0,1,365.449,90.041Zm0,0" transform="translate(-344.318 -84.447)"/></g></svg>