<svg xmlns="http://www.w3.org/2000/svg" width="600" height="425.111" viewBox="0 0 600 425.111"><defs><style>.a{fill:#168a7c;opacity:0.03;}</style></defs><path class="a" d="M467.016,25.634a40.588,40.588,0,0,0-57.325,0l-13.142,13.15A40.364,40.364,0,0,0,385.232,73.1a53.19,53.19,0,0,0-27.013,14.577l-2.465,2.465a13.652,13.652,0,0,1-8.934,3.989l-32.21,1.727A45.7,45.7,0,0,0,302.993,98.2a45.348,45.348,0,0,0-11.626-2.343l-32.2-1.727a13.647,13.647,0,0,1-8.934-3.981l-2.465-2.473A53.186,53.186,0,0,0,220.746,73.1a40.39,40.39,0,0,0-11.309-34.317L196.279,25.626a40.593,40.593,0,0,0-57.317.008l-124.1,124.1a40.534,40.534,0,0,0,0,57.317h0l13.15,13.15a40.284,40.284,0,0,0,28.667,11.877,40.792,40.792,0,0,0,5.651-.551,53.166,53.166,0,0,0,14.577,27l169.05,169.05a38.626,38.626,0,0,0,54.634,0l5.278-5.27a39.264,39.264,0,0,0,4.054-4.751,38.68,38.68,0,0,0,53.88-.746l5.27-5.27a39.339,39.339,0,0,0,4.508-5.391,38.657,38.657,0,0,0,48.529-4.986l5.286-5.278a38.656,38.656,0,0,0,10.466-35.3,38.494,38.494,0,0,0,10.272-7.345l5.294-5.286a38.3,38.3,0,0,0,11.05-24.816l64.614-64.606a53.1,53.1,0,0,0,14.577-27,41.037,41.037,0,0,0,5.651.551A40.28,40.28,0,0,0,577.978,220.2l13.15-13.15h0a40.534,40.534,0,0,0,0-57.317ZM62.414,197.27a8.113,8.113,0,0,1-11.472,0L37.8,184.12a8.113,8.113,0,0,1-.008-11.463L161.88,48.561a8.128,8.128,0,0,1,11.463,0l13.15,13.15a8.113,8.113,0,0,1,0,11.472L172,87.678l-95.088,95.1ZM506.133,235.6,450.9,290.834l-83.057-83.066A16.212,16.212,0,1,0,344.915,230.7l85.554,85.554a6.212,6.212,0,0,1,.008,8.764l-5.286,5.286a6.222,6.222,0,0,1-8.772,0l-78.85-78.858a16.212,16.212,0,1,0-22.927,22.927l78.85,78.858,10.953,10.953a6.214,6.214,0,0,1,0,8.772l-5.286,5.278a6.195,6.195,0,0,1-8.764,0l-21.33-21.33-68.473-68.473a16.212,16.212,0,1,0-22.927,22.927l68.473,68.473a6.195,6.195,0,0,1-.008,8.772l-5.27,5.278a6.244,6.244,0,0,1-8.772,0L305.9,367.681l-.024-.024h0L231.918,293.7a16.212,16.212,0,1,0-22.927,22.927l73.961,73.961v.008a6.185,6.185,0,0,1,0,8.756l-5.286,5.278a6.175,6.175,0,0,1-8.764,0L99.837,235.6a21.138,21.138,0,0,1,0-29.9l95.1-95.088c7.986-7.977,21.914-7.977,29.9,0l2.473,2.473a45.8,45.8,0,0,0,18.606,11.139l-48.018,22.392a42.991,42.991,0,0,0,34.463,78.744l66.811-27.345a14.278,14.278,0,0,1,4.037-.981l44.451-3.818a16.209,16.209,0,1,0-2.773-32.3l-44.468,3.818a46.411,46.411,0,0,0-13.506,3.259l-66.835,27.362A10.566,10.566,0,0,1,211.6,176l99.71-46.486a13.563,13.563,0,0,1,5.043-1.265l32.21-1.727a46.039,46.039,0,0,0,30.118-13.434l2.473-2.473c7.977-7.977,21.905-7.977,29.9,0l95.089,95.088a21.118,21.118,0,0,1-.008,29.891Zm62.036-51.48-13.15,13.15a8.113,8.113,0,0,1-11.472,0l-14.5-14.5-95.08-95.1c-.016-.016-.032-.024-.041-.041L419.476,73.182a8.113,8.113,0,0,1,0-11.472l13.142-13.142a8.123,8.123,0,0,1,11.472-.008l124.088,124.1a8.113,8.113,0,0,1-.008,11.463Z" transform="translate(-2.997 -13.783)"/></svg>