<svg xmlns="http://www.w3.org/2000/svg" width="34" height="34" viewBox="0 0 34 34"><defs><style>.a{fill:none;}.b{fill:#103e39;}</style></defs><rect class="a" width="34" height="34"/><g transform="translate(5 5)"><path class="b" d="M38.161,24.7a5.361,5.361,0,0,0,5.361-5.361V17.061a5.361,5.361,0,1,0-10.722,0v2.275A5.381,5.381,0,0,0,38.161,24.7ZM35.294,17.03a2.868,2.868,0,1,1,5.735,0v2.275a2.868,2.868,0,1,1-5.735,0Z" transform="translate(-26.161 -11.7)"/><path class="b" d="M28.175,58H18.825A7.316,7.316,0,0,0,11.5,65.325a1.247,1.247,0,0,0,2.494,0,4.855,4.855,0,0,1,4.831-4.831h9.351a4.855,4.855,0,0,1,4.831,4.831,1.247,1.247,0,0,0,2.494,0A7.316,7.316,0,0,0,28.175,58Z" transform="translate(-11.5 -43.569)"/></g></svg>