<svg xmlns="http://www.w3.org/2000/svg" width="34" height="34" viewBox="0 0 34 34"><defs><style>.a{fill:#f0f0f0;}.b{fill:#d80027;}.c{fill:#0052b4;}</style></defs><circle class="a" cx="17" cy="17" r="17"/><path class="b" d="M178.783,172.87c0,1.478-2.647,5.174-5.913,5.174s-5.913-3.7-5.913-5.174a5.913,5.913,0,0,1,11.826,0Z" transform="translate(-155.87 -155.87)"/><path class="c" d="M178.783,256a5.913,5.913,0,1,1-11.826,0" transform="translate(-155.87 -239)"/><rect width="2.217" height="1.478" transform="translate(23.272 22.226) rotate(-45)"/><rect width="2.217" height="1.478" transform="translate(20.658 24.84) rotate(-45)"/><rect width="2.217" height="1.478" transform="translate(26.408 25.362) rotate(-45)"/><rect width="2.217" height="1.478" transform="translate(23.794 27.976) rotate(-45)"/><rect width="2.217" height="1.478" transform="translate(24.84 23.794) rotate(-45)"/><rect width="2.217" height="1.478" transform="translate(22.227 26.408) rotate(-45)"/><rect width="5.913" height="1.478" transform="translate(26.408 11.773) rotate(-135)"/><rect width="2.217" height="1.478" transform="translate(22.227 10.728) rotate(-135)"/><rect width="2.217" height="1.478" transform="translate(24.84 13.341) rotate(-135)"/><rect width="2.217" height="1.478" transform="translate(25.362 7.593) rotate(-135)"/><rect width="2.217" height="1.478" transform="translate(27.976 10.206) rotate(-135)"/><rect width="5.913" height="1.478" transform="translate(6.025 23.795) rotate(45)"/><rect width="2.217" height="1.478" transform="translate(10.205 24.839) rotate(45)"/><rect width="2.217" height="1.478" transform="translate(7.592 22.226) rotate(45)"/><rect width="5.913" height="1.478" transform="translate(9.16 20.658) rotate(45)"/><rect width="5.913" height="1.478" transform="translate(10.206 6.024) rotate(135)"/><rect width="5.913" height="1.478" transform="translate(11.773 7.592) rotate(135)"/><rect width="5.913" height="1.478" transform="translate(13.342 9.161) rotate(135)"/></svg>