<svg xmlns="http://www.w3.org/2000/svg" width="23.891" height="24" viewBox="0 0 23.891 24"><defs><style>.a{fill:#fff;}.b,.c{fill:#103e39;}.c{fill-rule:evenodd;}</style></defs><g transform="translate(0 0)"><path class="a" d="M10.894,34.9l1.688-6.162A11.9,11.9,0,1,1,22.89,34.689h-.005A11.886,11.886,0,0,1,17.2,33.241Zm6.6-3.807.361.214a9.874,9.874,0,0,0,5.032,1.378h0a9.886,9.886,0,1,0-8.376-4.633l.235.374-1,3.647Zm0,0" transform="translate(-10.895 -10.895)"/><path class="a" d="M19.344,42.552,20.973,36.6a11.484,11.484,0,1,1,9.951,5.75h-.005a11.482,11.482,0,0,1-5.488-1.4Zm0,0" transform="translate(-18.93 -19.383)"/><path class="b" d="M10.894,34.9l1.688-6.162A11.9,11.9,0,1,1,22.89,34.689h-.005A11.886,11.886,0,0,1,17.2,33.241Zm6.6-3.807.361.214a9.874,9.874,0,0,0,5.032,1.378h0a9.886,9.886,0,1,0-8.376-4.633l.235.374-1,3.647Zm0,0" transform="translate(-10.895 -10.895)"/><path class="c" d="M135.517,142.134c-.223-.495-.457-.5-.669-.514-.173-.007-.372-.007-.57-.007a1.092,1.092,0,0,0-.793.372,3.332,3.332,0,0,0-1.041,2.479,5.781,5.781,0,0,0,1.214,3.074,12.2,12.2,0,0,0,5.077,4.487c2.511.99,3.022.793,3.567.744a3,3,0,0,0,2.006-1.413,2.482,2.482,0,0,0,.173-1.413c-.074-.124-.273-.2-.57-.347s-1.758-.868-2.031-.967-.471-.149-.669.149-.767.967-.941,1.165-.347.224-.644.075a8.127,8.127,0,0,1-2.39-1.475,8.956,8.956,0,0,1-1.654-2.058c-.173-.3,0-.444.131-.606a8.962,8.962,0,0,0,.743-1.016.548.548,0,0,0-.025-.521C136.359,144.191,135.781,142.722,135.517,142.134Zm0,0" transform="translate(-126.495 -135.213)"/></g></svg>