<svg xmlns="http://www.w3.org/2000/svg" width="24" height="16.804" viewBox="0 0 24 16.804"><defs><style>.a{fill:#103e39;}</style></defs><path class="a" d="M23.506-3.453a3.007,3.007,0,0,0-2.115-2.116C19.513-6.082,12-6.082,12-6.082s-7.512,0-9.39.494A3.068,3.068,0,0,0,.495-3.453,31.682,31.682,0,0,0,0,2.32,31.565,31.565,0,0,0,.495,8.092,3.007,3.007,0,0,0,2.61,10.208c1.9.514,9.39.514,9.39.514s7.512,0,9.39-.494a3.007,3.007,0,0,0,2.116-2.115A31.692,31.692,0,0,0,24,2.34a30.074,30.074,0,0,0-.494-5.792Zm-13.9,9.37v-7.2l6.247,3.6Zm0,0" transform="translate(-0.001 6.082)"/></svg>