<svg xmlns="http://www.w3.org/2000/svg" width="24" height="15.818" viewBox="0 0 24 15.818"><defs><style>.a{fill:#168a7c;}</style></defs><g transform="translate(-6 -973.362)"><path class="a" d="M7.091,973.362A1.107,1.107,0,0,0,6,974.453v13.636a1.107,1.107,0,0,0,1.091,1.091H28.909A1.107,1.107,0,0,0,30,988.089V974.453a1.107,1.107,0,0,0-1.091-1.091ZM7.636,975H28.364v.4L18,982.976,7.636,975.4Zm0,2.429,9.878,7.227a.818.818,0,0,0,.972,0l9.878-7.227v10.117H7.636V977.427Z" transform="translate(0 0)"/></g></svg>