<svg xmlns="http://www.w3.org/2000/svg" width="24" height="22.164" viewBox="0 0 24 22.164"><defs><style>.a{fill:#168a7c;}</style></defs><path class="a" d="M23.942,21.841a1.68,1.68,0,0,1-.192.48,14.123,14.123,0,0,1-2.467,3.007,8.354,8.354,0,0,1-.9.629l-.72.046c-.348-.046-.7-.086-1.044-.149a14.3,14.3,0,0,1-4.373-1.68,37.15,37.15,0,0,1-6.4-4.677,37.376,37.376,0,0,1-4.989-5.2A15.238,15.238,0,0,1,.382,9.95c-.134-.4-.226-.806-.336-1.2L0,8.018A6.251,6.251,0,0,1,1.565,5.733c.48-.494.974-.96,1.478-1.423a1.771,1.771,0,0,1,1.57-.432,1.238,1.238,0,0,1,.806.48C6.451,5.726,7.471,7.1,8.539,8.438a1.824,1.824,0,0,1,.264,1.92c-.13.343-.3.672-.456,1.006-.182.386-.365.775-.564,1.154a.274.274,0,0,0,.043.374c.72.737,1.406,1.507,2.16,2.215a33.793,33.793,0,0,0,4.483,3.672.374.374,0,0,0,.494,0q.875-.594,1.776-1.154a2.035,2.035,0,0,1,1.44-.355,1.349,1.349,0,0,1,.442.154Q21,18.779,23.373,20.149A1.508,1.508,0,0,1,23.942,21.841Z" transform="translate(0 -3.839)"/></svg>